# xmcd
# Copyright (C) 1995-1998 Ti Kan
#
# Track frame offsets:
#       150
#       14668
#       28637
#       40882
#       56450
#       72898
#       92256
#       108210
#       124413
#       141349
#       155777
#       170142
#       183515
#       193650
#       205270
#       223997
#       236289
#       251429
#       266291
#       278915
#       293404
#       310327
#
# Disc length: 4430 seconds
#
# Revision: 0
# Processed by: cddbd v1.5.2PL0 Copyright (c) Steve Scherf et al.
# Submitted via: CD-Import v1.0
#
DISCID=47114c16
DTITLE=Hrvatski Zvuci - Hrvatski Zvuci
DYEAR=1945
DGENRE=
TTITLE0=Hrvatski Zvuci 1
TTITLE1=Hrvatski Zvuci 2
TTITLE2=Hrvatski Zvuci 3
TTITLE3=Hrvatski Zvuci 4
TTITLE4=Hrvatski Zvuci 5
TTITLE5=Hrvatski Zvuci 6
TTITLE6=Hrvatski Zvuci 7
TTITLE7=Hrvatski Zvuci 8
TTITLE8=Hrvatski Zvuci 9
TTITLE9=Hrvatski Zvuci 10
TTITLE10=Hrvatski Zvuci 11
TTITLE11=Hrvatski Zvuci 12
TTITLE12=Hrvatski Zvuci 13
TTITLE13=Hrvatski Zvuci 14
TTITLE14=Hrvatski Zvuci 15
TTITLE15=Hrvatski Zvuci 16
TTITLE16=Hrvatski Zvuci 17
TTITLE17=Hrvatski Zvuci 18
TTITLE18=Hrvatski Zvuci 19
TTITLE19=Hrvatski Zvuci 20
TTITLE20=Hrvatski Zvuci 21
TTITLE21=Hrvatski Zvuci 22
EXTD=
EXTT0=
EXTT1=
EXTT2=
EXTT3=
EXTT4=
EXTT5=
EXTT6=
EXTT7=
EXTT8=
EXTT9=
EXTT10=
EXTT11=
EXTT12=
EXTT13=
EXTT14=
EXTT15=
EXTT16=
EXTT17=
EXTT18=
EXTT19=
EXTT20=
EXTT21=
PLAYORDER=
